<svg width="193" height="58" viewBox="0 0 193 58" fill="none" xmlns="http://www.w3.org/2000/svg">
<path fill-rule="evenodd" clip-rule="evenodd" d="M32.4645 48.4293C32.5482 47.3418 32.827 46.0313 32.9943 44.9438C33.5241 41.4583 33.7193 38.1958 35.5876 35.6026C36.5914 34.1805 38.0971 32.9815 40.2164 32.2844C41.4433 31.894 46.3509 31.643 47.6893 31.894C47.7451 33.3997 46.4624 36.7458 45.9047 37.9727C44.2874 41.4304 41.5548 44.2467 38.2366 46.2265C37.0654 46.9515 33.9982 48.3178 32.4645 48.4293ZM8.37257 31.6151C10.8543 31.5873 13.6148 31.42 15.7898 32.1171C17.9647 32.8142 19.4147 34.0411 20.4743 35.4074C22.2589 37.7776 22.5935 41.3746 23.0397 44.665C23.207 45.8361 23.4858 47.0072 23.5695 48.1784C21.9243 48.039 19.0243 46.7005 17.8532 46.0034C16.4032 45.1669 14.4792 43.7169 13.3917 42.4621C12.1927 41.0958 11.2168 39.841 10.2129 37.8054C9.54371 36.4949 8.34469 33.3161 8.37257 31.6151ZM21.0599 29.8027C20.1118 20.3499 34.0818 19.1509 34.9741 28.269C35.8943 37.7218 21.9801 38.8372 21.0599 29.8027ZM8.95814 23.7518C9.04179 22.4133 10.8264 19.0951 11.5235 18.0634C18.1599 8.19239 31.7395 6.68664 40.4115 13.4346C42.0009 14.6894 43.2836 16 44.4548 17.7288C45.2634 18.9557 46.9364 21.9672 47.0759 23.5008C46.3788 23.3056 45.6817 22.971 45.0403 22.6922C43.0884 21.9114 40.4115 21.1028 38.4039 20.6009C29.0627 18.2586 19.8051 19.3461 11.0216 22.9153C10.3524 23.1941 9.65524 23.5287 8.95814 23.7518ZM20.9762 22.6643C20.4464 23.0547 19.3868 24.8393 19.0243 25.8431C18.3551 27.5998 18.4109 28.5758 18.5503 30.5277C17.658 30.2767 17.1282 29.7469 15.2879 29.3286C13.8658 28.994 8.23315 28.6873 7.11778 29.3844C6.14183 29.9421 5.58415 30.8623 5.83511 32.4517C6.61586 37.4708 9.06968 41.4583 11.7466 44.3303C14.0331 46.7563 18.383 49.8793 22.9839 50.7437C24.3781 50.9947 25.3541 50.1303 25.856 49.2937C26.4694 48.3178 26.0233 46.7842 25.8002 45.5294C25.5771 44.2746 25.4098 42.9083 25.2146 41.6256L24.5733 37.917C25.4377 38.3074 26.7762 38.5862 27.9194 38.5862C29.5925 38.6141 30.178 38.2516 31.5722 37.917L30.8751 41.7092C30.6521 42.9919 30.4848 44.2746 30.2617 45.5573C30.0944 46.6169 29.6482 48.4572 30.0665 49.4332C30.4569 50.3255 31.3771 51.2735 32.8549 51.0226C36.8981 50.4091 41.5827 47.4534 44.2317 44.6371C46.9364 41.7092 49.3345 37.9727 50.1989 32.8142C50.8681 28.6594 46.797 29.2729 44.9288 29.2729C42.5586 29.2729 41.1644 29.1892 38.9616 30.0536C38.4875 30.2488 37.8741 30.5834 37.4837 30.7228C37.4558 28.9104 37.902 28.2969 37.0654 25.9268C36.3404 23.9191 35.2251 23.0268 35.0299 22.5249C36.7308 22.6922 39.4077 23.5008 40.9971 24.0027C43.2836 24.7277 44.4826 25.3412 46.4345 26.0662C47.7451 26.5402 50.4499 25.4806 49.5297 22.4691C46.9364 13.9365 38.7106 6.65876 27.8358 6.74241C17.2119 6.82607 8.93025 14.3827 6.47644 22.8316C6.11395 24.0864 6.22549 24.8114 6.97836 25.5921C7.56393 26.1777 8.59564 26.7354 9.65524 26.3171C11.4677 25.5921 13.1408 24.8114 15.0369 24.1701C16.0128 23.8633 20.0561 22.5807 20.9762 22.6643Z" fill="#35347E"/>
<path fill-rule="evenodd" clip-rule="evenodd" d="M25.9117 3.72931C33.4683 2.83701 40.8577 6.26677 44.9009 9.91961C48.8604 13.5167 52.6248 18.8983 53.3219 26.7896C54.019 34.7366 50.9517 41.624 47.1316 45.8903C43.4509 49.9892 38.1529 53.5863 30.178 54.3113C22.2868 55.0363 15.3715 51.8854 11.161 48.121C0.620718 38.6682 -0.243693 22.3281 8.93022 12.1503C13.4753 7.07542 18.6339 4.56584 25.9117 3.72931ZM25.2704 1.16396C24.4338 1.38703 23.1233 1.47069 22.2589 1.63799C21.2829 1.86107 20.3627 2.11202 19.4705 2.39087C17.7695 2.94855 16.1243 3.70143 14.6186 4.53795C11.3561 6.35043 8.93022 8.46963 6.89467 10.8119C2.85146 15.4128 -0.857146 23.2483 0.174571 31.8087C1.20629 40.4249 5.27738 46.1412 9.82251 50.1565C14.2282 54.0603 22.3704 57.9641 30.7914 56.8487C38.5154 55.8449 44.3432 52.7219 49.1393 47.2287C53.2661 42.5163 56.7517 34.9875 55.8594 26.2319C54.9949 17.783 50.5614 11.7042 46.2393 7.88406C42.5865 4.67737 37.149 1.94472 31.8232 1.30338C30.178 1.10819 26.8598 0.801466 25.2704 1.16396Z" fill="#35347E"/>
<path fill-rule="evenodd" clip-rule="evenodd" d="M30.2896 29.6055C29.7319 32.3382 25.0753 31.892 25.7445 28.4065C26.2743 25.7296 31.0146 26.1479 30.2896 29.6055ZM26.9714 24.2518C24.7964 24.8373 22.482 27.1796 23.2349 30.1074C23.8205 32.2545 26.2743 34.541 29.1185 33.7882C31.2934 33.2305 33.5242 30.7767 32.7992 27.9325C32.2694 25.8133 29.7877 23.4989 26.9714 24.2518Z" fill="#35347E"/>
<path d="M72.711 14.597C73.245 14.093 73.863 13.694 74.565 13.4C75.267 13.106 76.077 12.959 76.995 12.959C77.931 12.959 78.786 13.121 79.56 13.445C80.334 13.763 80.997 14.213 81.549 14.795C82.107 15.377 82.539 16.073 82.845 16.883C83.151 17.693 83.304 18.584 83.304 19.556C83.304 20.528 83.157 21.419 82.863 22.229C82.569 23.039 82.155 23.735 81.621 24.317C81.087 24.893 80.442 25.343 79.686 25.667C78.93 25.985 78.09 26.144 77.166 26.144C76.098 26.144 75.186 25.973 74.43 25.631C73.68 25.289 73.041 24.812 72.513 24.2L73.206 23.453C73.278 23.375 73.362 23.336 73.458 23.336C73.56 23.336 73.662 23.381 73.764 23.471C73.986 23.675 74.208 23.852 74.43 24.002C74.658 24.146 74.901 24.266 75.159 24.362C75.423 24.458 75.708 24.53 76.014 24.578C76.32 24.62 76.668 24.641 77.058 24.641C77.652 24.641 78.207 24.539 78.723 24.335C79.239 24.131 79.695 23.837 80.091 23.453C80.487 23.063 80.808 22.586 81.054 22.022C81.3 21.458 81.45 20.816 81.504 20.096H74.997V18.773H81.486C81.414 18.095 81.252 17.492 81 16.964C80.754 16.43 80.436 15.98 80.046 15.614C79.656 15.242 79.203 14.96 78.687 14.768C78.171 14.57 77.61 14.471 77.004 14.471C76.452 14.471 75.987 14.531 75.609 14.651C75.231 14.765 74.916 14.894 74.664 15.038C74.412 15.182 74.208 15.314 74.052 15.434C73.896 15.548 73.764 15.605 73.656 15.605C73.56 15.605 73.482 15.587 73.422 15.551C73.368 15.509 73.323 15.458 73.287 15.398L72.711 14.597ZM93.084 26H91.482V18.143H88.602C88.53 19.301 88.422 20.303 88.278 21.149C88.134 21.989 87.96 22.706 87.756 23.3C87.558 23.888 87.333 24.368 87.081 24.74C86.835 25.106 86.574 25.391 86.298 25.595C86.028 25.799 85.746 25.937 85.452 26.009C85.164 26.081 84.876 26.117 84.588 26.117C84.078 26.117 83.823 26.036 83.823 25.874V24.857H84.291C84.495 24.857 84.702 24.821 84.912 24.749C85.122 24.677 85.326 24.539 85.524 24.335C85.728 24.131 85.923 23.846 86.109 23.48C86.295 23.108 86.463 22.628 86.613 22.04C86.769 21.446 86.901 20.729 87.009 19.889C87.123 19.043 87.21 18.041 87.27 16.883H93.084V26ZM102.173 20.447C102.173 20.075 102.119 19.736 102.011 19.43C101.909 19.118 101.756 18.851 101.552 18.629C101.354 18.401 101.111 18.227 100.823 18.107C100.535 17.981 100.208 17.918 99.8423 17.918C99.0743 17.918 98.4653 18.143 98.0153 18.593C97.5713 19.037 97.2953 19.655 97.1873 20.447H102.173ZM103.469 24.722C103.271 24.962 103.034 25.172 102.758 25.352C102.482 25.526 102.185 25.67 101.867 25.784C101.555 25.898 101.231 25.982 100.895 26.036C100.559 26.096 100.226 26.126 99.8963 26.126C99.2663 26.126 98.6843 26.021 98.1503 25.811C97.6223 25.595 97.1633 25.283 96.7733 24.875C96.3893 24.461 96.0893 23.951 95.8733 23.345C95.6573 22.739 95.5493 22.043 95.5493 21.257C95.5493 20.621 95.6453 20.027 95.8373 19.475C96.0353 18.923 96.3173 18.446 96.6833 18.044C97.0493 17.636 97.4963 17.318 98.0243 17.09C98.5523 16.856 99.1463 16.739 99.8063 16.739C100.352 16.739 100.856 16.832 101.318 17.018C101.786 17.198 102.188 17.462 102.524 17.81C102.866 18.152 103.133 18.578 103.325 19.088C103.517 19.592 103.613 20.168 103.613 20.816C103.613 21.068 103.586 21.236 103.532 21.32C103.478 21.404 103.376 21.446 103.226 21.446H97.1333C97.1513 22.022 97.2293 22.523 97.3673 22.949C97.5113 23.375 97.7093 23.732 97.9613 24.02C98.2133 24.302 98.5133 24.515 98.8613 24.659C99.2093 24.797 99.5993 24.866 100.031 24.866C100.433 24.866 100.778 24.821 101.066 24.731C101.36 24.635 101.612 24.533 101.822 24.425C102.032 24.317 102.206 24.218 102.344 24.128C102.488 24.032 102.611 23.984 102.713 23.984C102.845 23.984 102.947 24.035 103.019 24.137L103.469 24.722ZM111.566 17.333C111.65 17.201 111.761 17.093 111.899 17.009C112.037 16.925 112.184 16.883 112.34 16.883H113.591L111.224 20.357C111.08 20.579 110.93 20.762 110.774 20.906C110.618 21.044 110.426 21.152 110.198 21.23C110.486 21.308 110.729 21.431 110.927 21.599C111.125 21.761 111.302 21.971 111.458 22.229L113.852 26H112.736C112.448 26 112.226 25.952 112.07 25.856C111.914 25.76 111.779 25.622 111.665 25.442L109.892 22.607C109.61 22.139 109.187 21.905 108.623 21.905H107.642V26.009H106.031V16.883H107.642V20.825H108.506C108.986 20.825 109.361 20.621 109.631 20.213L111.566 17.333ZM123.376 18.107H119.875V26H118.273V18.107H114.772V16.883H123.376V18.107ZM126.964 23.804C127.258 24.2 127.579 24.479 127.927 24.641C128.275 24.803 128.665 24.884 129.097 24.884C129.949 24.884 130.603 24.581 131.059 23.975C131.515 23.369 131.743 22.505 131.743 21.383C131.743 20.789 131.689 20.279 131.581 19.853C131.479 19.427 131.329 19.079 131.131 18.809C130.933 18.533 130.69 18.332 130.402 18.206C130.114 18.08 129.787 18.017 129.421 18.017C128.899 18.017 128.44 18.137 128.044 18.377C127.654 18.617 127.294 18.956 126.964 19.394V23.804ZM126.883 18.296C127.267 17.822 127.711 17.441 128.215 17.153C128.719 16.865 129.295 16.721 129.943 16.721C130.471 16.721 130.948 16.823 131.374 17.027C131.8 17.225 132.163 17.522 132.463 17.918C132.763 18.308 132.994 18.794 133.156 19.376C133.318 19.958 133.399 20.627 133.399 21.383C133.399 22.055 133.309 22.682 133.129 23.264C132.949 23.84 132.688 24.341 132.346 24.767C132.01 25.187 131.596 25.52 131.104 25.766C130.618 26.006 130.069 26.126 129.457 26.126C128.899 26.126 128.419 26.033 128.017 25.847C127.621 25.655 127.27 25.391 126.964 25.055V29.087H125.353V16.883H126.316C126.544 16.883 126.685 16.994 126.739 17.216L126.883 18.296ZM139.718 16.739C140.384 16.739 140.984 16.85 141.518 17.072C142.052 17.294 142.508 17.609 142.886 18.017C143.264 18.425 143.552 18.92 143.75 19.502C143.954 20.078 144.056 20.723 144.056 21.437C144.056 22.157 143.954 22.805 143.75 23.381C143.552 23.957 143.264 24.449 142.886 24.857C142.508 25.265 142.052 25.58 141.518 25.802C140.984 26.018 140.384 26.126 139.718 26.126C139.046 26.126 138.44 26.018 137.9 25.802C137.366 25.58 136.91 25.265 136.532 24.857C136.154 24.449 135.863 23.957 135.659 23.381C135.461 22.805 135.362 22.157 135.362 21.437C135.362 20.723 135.461 20.078 135.659 19.502C135.863 18.92 136.154 18.425 136.532 18.017C136.91 17.609 137.366 17.294 137.9 17.072C138.44 16.85 139.046 16.739 139.718 16.739ZM139.718 24.875C140.618 24.875 141.29 24.575 141.734 23.975C142.178 23.369 142.4 22.526 142.4 21.446C142.4 20.36 142.178 19.514 141.734 18.908C141.29 18.302 140.618 17.999 139.718 17.999C139.262 17.999 138.863 18.077 138.521 18.233C138.185 18.389 137.903 18.614 137.675 18.908C137.453 19.202 137.285 19.565 137.171 19.997C137.063 20.423 137.009 20.906 137.009 21.446C137.009 22.526 137.231 23.369 137.675 23.975C138.125 24.575 138.806 24.875 139.718 24.875ZM154.134 16.883V26H152.523V21.734H148.149V26H146.538V16.883H148.149V20.519H152.523V16.883H154.134ZM164.727 16.883V26H163.116V21.734H158.742V26H157.131V16.883H158.742V20.519H163.116V16.883H164.727ZM171.224 24.83C171.548 24.83 171.827 24.791 172.061 24.713C172.301 24.629 172.499 24.515 172.655 24.371C172.811 24.221 172.928 24.047 173.006 23.849C173.084 23.651 173.123 23.435 173.123 23.201C173.123 22.985 173.09 22.784 173.024 22.598C172.958 22.406 172.847 22.238 172.691 22.094C172.541 21.95 172.343 21.836 172.097 21.752C171.851 21.668 171.551 21.626 171.197 21.626H169.253V24.83H171.224ZM171.197 20.456C171.827 20.456 172.355 20.531 172.781 20.681C173.213 20.831 173.558 21.032 173.816 21.284C174.08 21.536 174.269 21.827 174.383 22.157C174.497 22.487 174.554 22.829 174.554 23.183C174.554 23.591 174.482 23.969 174.338 24.317C174.194 24.659 173.981 24.956 173.699 25.208C173.417 25.454 173.069 25.649 172.655 25.793C172.241 25.931 171.764 26 171.224 26H167.723V16.883H169.253V20.456H171.197ZM178.163 16.883V26H176.561V16.883H178.163ZM188.985 16.883V26H187.383V19.808C187.383 19.688 187.389 19.559 187.401 19.421C187.413 19.283 187.428 19.145 187.446 19.007C187.392 19.127 187.338 19.238 187.284 19.34C187.23 19.442 187.173 19.535 187.113 19.619L182.712 25.604C182.646 25.7 182.562 25.793 182.46 25.883C182.364 25.967 182.256 26.009 182.136 26.009H181.164V16.892H182.775V23.084C182.775 23.198 182.769 23.324 182.757 23.462C182.745 23.594 182.73 23.729 182.712 23.867C182.766 23.753 182.82 23.648 182.874 23.552C182.928 23.45 182.982 23.357 183.036 23.273L187.437 17.288C187.503 17.192 187.587 17.102 187.689 17.018C187.791 16.928 187.902 16.883 188.022 16.883H188.985ZM185.178 14.678C185.424 14.678 185.631 14.651 185.799 14.597C185.967 14.537 186.102 14.444 186.204 14.318C186.312 14.192 186.39 14.03 186.438 13.832C186.486 13.634 186.51 13.391 186.51 13.103H187.446C187.56 13.103 187.647 13.154 187.707 13.256C187.767 13.358 187.797 13.469 187.797 13.589C187.797 13.889 187.737 14.159 187.617 14.399C187.497 14.639 187.323 14.846 187.095 15.02C186.873 15.188 186.6 15.317 186.276 15.407C185.952 15.497 185.586 15.542 185.178 15.542C184.77 15.542 184.404 15.497 184.08 15.407C183.756 15.317 183.48 15.188 183.252 15.02C183.03 14.846 182.859 14.639 182.739 14.399C182.619 14.159 182.559 13.889 182.559 13.589C182.559 13.469 182.589 13.358 182.649 13.256C182.709 13.154 182.796 13.103 182.91 13.103H183.846C183.846 13.391 183.87 13.634 183.918 13.832C183.966 14.03 184.041 14.192 184.143 14.318C184.251 14.444 184.389 14.537 184.557 14.597C184.725 14.651 184.932 14.678 185.178 14.678ZM80.865 42H79.254V34.107H74.88V42H73.269V32.883H80.865V42ZM87.7046 32.739C88.3706 32.739 88.9706 32.85 89.5046 33.072C90.0386 33.294 90.4946 33.609 90.8726 34.017C91.2506 34.425 91.5386 34.92 91.7366 35.502C91.9406 36.078 92.0426 36.723 92.0426 37.437C92.0426 38.157 91.9406 38.805 91.7366 39.381C91.5386 39.957 91.2506 40.449 90.8726 40.857C90.4946 41.265 90.0386 41.58 89.5046 41.802C88.9706 42.018 88.3706 42.126 87.7046 42.126C87.0326 42.126 86.4266 42.018 85.8866 41.802C85.3526 41.58 84.8966 41.265 84.5186 40.857C84.1406 40.449 83.8496 39.957 83.6456 39.381C83.4476 38.805 83.3486 38.157 83.3486 37.437C83.3486 36.723 83.4476 36.078 83.6456 35.502C83.8496 34.92 84.1406 34.425 84.5186 34.017C84.8966 33.609 85.3526 33.294 85.8866 33.072C86.4266 32.85 87.0326 32.739 87.7046 32.739ZM87.7046 40.875C88.6046 40.875 89.2766 40.575 89.7206 39.975C90.1646 39.369 90.3866 38.526 90.3866 37.446C90.3866 36.36 90.1646 35.514 89.7206 34.908C89.2766 34.302 88.6046 33.999 87.7046 33.999C87.2486 33.999 86.8496 34.077 86.5076 34.233C86.1716 34.389 85.8896 34.614 85.6616 34.908C85.4396 35.202 85.2716 35.565 85.1576 35.997C85.0496 36.423 84.9956 36.906 84.9956 37.446C84.9956 38.526 85.2176 39.369 85.6616 39.975C86.1116 40.575 86.7926 40.875 87.7046 40.875ZM104.685 32.856V42H103.236V35.943C103.236 35.775 103.245 35.589 103.263 35.385C103.287 35.175 103.317 34.98 103.353 34.8L100.185 40.353C100.137 40.443 100.074 40.515 99.9965 40.569C99.9185 40.623 99.8285 40.65 99.7265 40.65H99.5465C99.4445 40.65 99.3515 40.623 99.2675 40.569C99.1895 40.515 99.1265 40.443 99.0785 40.353L95.8565 34.782C95.8865 34.962 95.9135 35.16 95.9375 35.376C95.9615 35.586 95.9735 35.775 95.9735 35.943V42H94.5245V32.856H95.8115C95.9255 32.856 96.0365 32.883 96.1445 32.937C96.2525 32.985 96.3455 33.078 96.4235 33.216L99.2675 37.968C99.4055 38.244 99.5285 38.535 99.6365 38.841C99.7385 38.523 99.8585 38.232 99.9965 37.968L102.786 33.216C102.864 33.072 102.957 32.976 103.065 32.928C103.173 32.88 103.284 32.856 103.398 32.856H104.685ZM111.509 32.739C112.175 32.739 112.775 32.85 113.309 33.072C113.843 33.294 114.299 33.609 114.677 34.017C115.055 34.425 115.343 34.92 115.541 35.502C115.745 36.078 115.847 36.723 115.847 37.437C115.847 38.157 115.745 38.805 115.541 39.381C115.343 39.957 115.055 40.449 114.677 40.857C114.299 41.265 113.843 41.58 113.309 41.802C112.775 42.018 112.175 42.126 111.509 42.126C110.837 42.126 110.231 42.018 109.691 41.802C109.157 41.58 108.701 41.265 108.323 40.857C107.945 40.449 107.654 39.957 107.45 39.381C107.252 38.805 107.153 38.157 107.153 37.437C107.153 36.723 107.252 36.078 107.45 35.502C107.654 34.92 107.945 34.425 108.323 34.017C108.701 33.609 109.157 33.294 109.691 33.072C110.231 32.85 110.837 32.739 111.509 32.739ZM111.509 40.875C112.409 40.875 113.081 40.575 113.525 39.975C113.969 39.369 114.191 38.526 114.191 37.446C114.191 36.36 113.969 35.514 113.525 34.908C113.081 34.302 112.409 33.999 111.509 33.999C111.053 33.999 110.654 34.077 110.312 34.233C109.976 34.389 109.694 34.614 109.466 34.908C109.244 35.202 109.076 35.565 108.962 35.997C108.854 36.423 108.8 36.906 108.8 37.446C108.8 38.526 109.022 39.369 109.466 39.975C109.916 40.575 110.597 40.875 111.509 40.875ZM132.27 40.785V44.646C132.27 44.802 132.225 44.922 132.135 45.006C132.051 45.096 131.94 45.141 131.802 45.141H130.812V42H118.329V32.883H119.94V40.785H123.657V32.883H125.268V40.785H128.985V32.883H130.596V40.785H132.27ZM141.931 32.883V42H140.32V37.734H135.946V42H134.335V32.883H135.946V36.519H140.32V32.883H141.931ZM152.749 32.883V42H151.147V35.808C151.147 35.688 151.153 35.559 151.165 35.421C151.177 35.283 151.192 35.145 151.21 35.007C151.156 35.127 151.102 35.238 151.048 35.34C150.994 35.442 150.937 35.535 150.877 35.619L146.476 41.604C146.41 41.7 146.326 41.793 146.224 41.883C146.128 41.967 146.02 42.009 145.9 42.009H144.928V32.892H146.539V39.084C146.539 39.198 146.533 39.324 146.521 39.462C146.509 39.594 146.494 39.729 146.476 39.867C146.53 39.753 146.584 39.648 146.638 39.552C146.692 39.45 146.746 39.357 146.8 39.273L151.201 33.288C151.267 33.192 151.351 33.102 151.453 33.018C151.555 32.928 151.666 32.883 151.786 32.883H152.749ZM161.267 33.333C161.351 33.201 161.462 33.093 161.6 33.009C161.738 32.925 161.885 32.883 162.041 32.883H163.292L160.925 36.357C160.781 36.579 160.631 36.762 160.475 36.906C160.319 37.044 160.127 37.152 159.899 37.23C160.187 37.308 160.43 37.431 160.628 37.599C160.826 37.761 161.003 37.971 161.159 38.229L163.553 42H162.437C162.149 42 161.927 41.952 161.771 41.856C161.615 41.76 161.48 41.622 161.366 41.442L159.593 38.607C159.311 38.139 158.888 37.905 158.324 37.905H157.343V42.009H155.732V32.883H157.343V36.825H158.207C158.687 36.825 159.062 36.621 159.332 36.213L161.267 33.333Z" fill="#35347E"/>
</svg>
