<svg width="194" height="65" viewBox="0 0 194 65" fill="none" xmlns="http://www.w3.org/2000/svg">
<path fill-rule="evenodd" clip-rule="evenodd" d="M99.8832 30.4733C99.9369 29.7746 100.116 28.9327 100.224 28.234C100.564 25.9948 100.689 23.8988 101.89 22.2328C102.534 21.3192 103.502 20.5489 104.863 20.1011C105.651 19.8503 108.804 19.6891 109.664 19.8503C109.7 20.8176 108.876 22.9673 108.518 23.7555C107.479 25.9769 105.723 27.7862 103.591 29.0581C102.839 29.5238 100.868 30.4016 99.8832 30.4733ZM84.4055 19.6711C85.9998 19.6532 87.7733 19.5457 89.1706 19.9936C90.5679 20.4414 91.4994 21.2297 92.1802 22.1074C93.3267 23.6301 93.5416 25.941 93.8283 28.0549C93.9357 28.8073 94.1149 29.5597 94.1686 30.3121C93.1117 30.2225 91.2486 29.3626 90.4962 28.9148C89.5647 28.3773 88.3287 27.4458 87.63 26.6397C86.8597 25.7619 86.2327 24.9558 85.5878 23.648C85.1579 22.8061 84.3876 20.7639 84.4055 19.6711ZM92.5564 18.5067C91.9473 12.4339 100.922 11.6636 101.495 17.5215C102.087 23.5943 93.1475 24.3109 92.5564 18.5067ZM84.7817 14.6194C84.8354 13.7595 85.9819 11.6278 86.4298 10.9649C90.6933 4.62339 99.4174 3.65604 104.989 7.99122C106.01 8.79735 106.834 9.63931 107.586 10.75C108.106 11.5382 109.181 13.4729 109.27 14.4582C108.822 14.3328 108.374 14.1178 107.962 13.9387C106.708 13.4371 104.989 12.9176 103.699 12.5951C97.6977 11.0903 91.7502 11.789 86.1073 14.082C85.6774 14.2611 85.2295 14.4761 84.7817 14.6194ZM92.5026 13.9208C92.1622 14.1715 91.4815 15.318 91.2486 15.9629C90.8187 17.0915 90.8545 17.7185 90.9441 18.9725C90.3709 18.8113 90.0305 18.4709 88.8482 18.2022C87.9345 17.9872 84.3159 17.7902 83.5994 18.238C82.9724 18.5963 82.6141 19.1875 82.7753 20.2086C83.2769 23.4331 84.8533 25.9948 86.5731 27.8399C88.042 29.3984 90.8366 31.4048 93.7924 31.9601C94.6881 32.1214 95.3151 31.566 95.6376 31.0286C96.0317 30.4016 95.745 29.4164 95.6017 28.6102C95.4584 27.8041 95.3509 26.9263 95.2255 26.1023L94.8135 23.7197C95.3689 23.9705 96.2287 24.1496 96.9632 24.1496C98.038 24.1676 98.4142 23.9347 99.3099 23.7197L98.8621 26.156C98.7188 26.98 98.6113 27.8041 98.468 28.6281C98.3605 29.3089 98.0739 30.4912 98.3426 31.1182C98.5934 31.6914 99.1845 32.3005 100.134 32.1393C102.732 31.7452 105.741 29.8463 107.443 28.037C109.181 26.156 110.721 23.7555 111.276 20.4414C111.706 17.7723 109.091 18.1664 107.891 18.1664C106.368 18.1664 105.472 18.1126 104.057 18.668C103.753 18.7934 103.358 19.0083 103.108 19.0979C103.09 17.9335 103.376 17.5394 102.839 16.0167C102.373 14.7269 101.657 14.1536 101.531 13.8312C102.624 13.9387 104.344 14.4582 105.365 14.7806C106.834 15.2464 107.604 15.6405 108.858 16.1063C109.7 16.4108 111.438 15.7301 110.847 13.7954C109.181 8.31366 103.896 3.63812 96.9095 3.69187C90.0842 3.74561 84.7638 8.6003 83.1873 14.0282C82.9545 14.8344 83.0261 15.3001 83.5098 15.8017C83.886 16.1779 84.5488 16.5362 85.2295 16.2675C86.3939 15.8017 87.4688 15.3001 88.6869 14.8881C89.3139 14.6911 91.9115 13.867 92.5026 13.9208Z" fill="white"/>
<path fill-rule="evenodd" clip-rule="evenodd" d="M95.6734 1.75625C100.528 1.183 105.275 3.38642 107.873 5.73315C110.417 8.04405 112.835 11.5015 113.283 16.5711C113.731 21.6766 111.76 26.1014 109.306 28.8422C106.941 31.4755 103.538 33.7864 98.4142 34.2522C93.3446 34.718 88.9019 32.6937 86.1969 30.2753C79.4254 24.2025 78.8701 13.7049 84.7638 7.16627C87.6837 3.90592 90.9978 2.29366 95.6734 1.75625ZM95.2614 0.108159C94.7239 0.251471 93.882 0.305213 93.3266 0.412696C92.6997 0.556008 92.1085 0.717234 91.5352 0.896374C90.4425 1.25465 89.3856 1.73833 88.4182 2.27575C86.3223 3.44016 84.7638 4.80162 83.456 6.3064C80.8585 9.2622 78.4759 14.296 79.1388 19.7956C79.8016 25.331 82.417 29.0034 85.337 31.583C88.1674 34.091 93.3983 36.5989 98.8083 35.8824C103.77 35.2375 107.515 33.2311 110.596 29.7021C113.247 26.6746 115.486 21.8378 114.913 16.2128C114.358 10.7849 111.509 6.87964 108.733 4.42543C106.386 2.36532 102.893 0.60975 99.4711 0.197729C98.4142 0.0723307 96.2824 -0.124723 95.2614 0.108159Z" fill="white"/>
<path fill-rule="evenodd" clip-rule="evenodd" d="M98.4859 18.3805C98.1276 20.1361 95.136 19.8494 95.5659 17.6102C95.9063 15.8905 98.9517 16.1592 98.4859 18.3805ZM96.3542 14.941C94.9569 15.3172 93.47 16.822 93.9537 18.7029C94.3299 20.0823 95.9063 21.5513 97.7335 21.0676C99.1308 20.7093 100.564 19.1329 100.098 17.3057C99.7578 15.9442 98.1635 14.4573 96.3542 14.941Z" fill="white"/>
<path d="M1.02505 51.832C1.49438 51.384 2.04638 51.0267 2.68105 50.76C3.32105 50.488 4.05705 50.352 4.88905 50.352C5.72638 50.352 6.49172 50.496 7.18505 50.784C7.88372 51.072 8.48105 51.4773 8.97705 52C9.47838 52.5173 9.86505 53.1387 10.1371 53.864C10.4144 54.584 10.5531 55.376 10.5531 56.24C10.5531 57.104 10.4224 57.896 10.1611 58.616C9.89972 59.336 9.52905 59.9573 9.04905 60.48C8.56905 60.9973 7.98772 61.4027 7.30505 61.696C6.62772 61.984 5.87038 62.128 5.03305 62.128C4.07838 62.128 3.26238 61.976 2.58505 61.672C1.90772 61.3627 1.33438 60.9253 0.865051 60.36L1.60105 59.552C1.67572 59.472 1.76638 59.432 1.87305 59.432C1.97438 59.432 2.07838 59.48 2.18505 59.576C2.37172 59.7467 2.55838 59.8907 2.74505 60.008C2.93705 60.1253 3.13972 60.224 3.35305 60.304C3.57172 60.3787 3.80638 60.4347 4.05705 60.472C4.31305 60.504 4.59838 60.52 4.91305 60.52C5.39305 60.52 5.84638 60.44 6.27305 60.28C6.69972 60.1147 7.07572 59.8747 7.40105 59.56C7.73172 59.2453 8.00105 58.8613 8.20905 58.408C8.42238 57.9547 8.55838 57.4347 8.61705 56.848H3.05705V55.44H8.60105C8.53172 54.8907 8.39038 54.4 8.17705 53.968C7.96905 53.536 7.70505 53.1733 7.38505 52.88C7.06505 52.5813 6.69438 52.3547 6.27305 52.2C5.85172 52.0453 5.39305 51.968 4.89705 51.968C4.42238 51.968 4.02772 52.0187 3.71305 52.12C3.39838 52.216 3.13438 52.3253 2.92105 52.448C2.70772 52.5653 2.53438 52.6747 2.40105 52.776C2.26772 52.872 2.14505 52.92 2.03305 52.92C1.93172 52.92 1.85172 52.8987 1.79305 52.856C1.73972 52.8133 1.69172 52.7627 1.64905 52.704L1.02505 51.832ZM19.3131 62H17.5931V55.176H15.3211C15.2571 56.1947 15.1584 57.0747 15.0251 57.816C14.8971 58.552 14.7424 59.176 14.5611 59.688C14.3797 60.2 14.1771 60.616 13.9531 60.936C13.7291 61.2507 13.4917 61.496 13.2411 61.672C12.9904 61.848 12.7317 61.9653 12.4651 62.024C12.2037 62.0827 11.9397 62.112 11.6731 62.112C11.1557 62.112 10.8971 62.0267 10.8971 61.856V60.776H11.3451C11.5211 60.776 11.6997 60.7467 11.8811 60.688C12.0677 60.6293 12.2464 60.5147 12.4171 60.344C12.5877 60.168 12.7504 59.9227 12.9051 59.608C13.0651 59.2933 13.2091 58.88 13.3371 58.368C13.4704 57.8507 13.5851 57.224 13.6811 56.488C13.7771 55.7467 13.8517 54.864 13.9051 53.84H19.3131V62ZM27.1578 57C27.1578 56.712 27.1151 56.4453 27.0298 56.2C26.9498 55.9493 26.8298 55.7333 26.6698 55.552C26.5098 55.3653 26.3098 55.2213 26.0698 55.12C25.8351 55.0133 25.5631 54.96 25.2538 54.96C24.6298 54.96 24.1391 55.1387 23.7818 55.496C23.4245 55.8533 23.1978 56.3547 23.1018 57H27.1578ZM23.0538 58.056C23.0751 58.52 23.1471 58.9227 23.2698 59.264C23.3925 59.6 23.5551 59.88 23.7578 60.104C23.9658 60.328 24.2111 60.496 24.4938 60.608C24.7818 60.7147 25.1018 60.768 25.4538 60.768C25.7898 60.768 26.0805 60.7307 26.3258 60.656C26.5711 60.576 26.7845 60.4907 26.9658 60.4C27.1471 60.304 27.3018 60.2187 27.4298 60.144C27.5578 60.064 27.6751 60.024 27.7818 60.024C27.9205 60.024 28.0271 60.0773 28.1018 60.184L28.5898 60.816C28.3871 61.056 28.1578 61.2587 27.9018 61.424C27.6458 61.5893 27.3738 61.7253 27.0858 61.832C26.7978 61.9333 26.5018 62.0053 26.1978 62.048C25.8938 62.096 25.5978 62.12 25.3098 62.12C24.7445 62.12 24.2191 62.0267 23.7338 61.84C23.2538 61.648 22.8351 61.368 22.4778 61C22.1258 60.632 21.8485 60.176 21.6458 59.632C21.4485 59.088 21.3498 58.4613 21.3498 57.752C21.3498 57.1867 21.4378 56.6587 21.6138 56.168C21.7951 55.6773 22.0511 55.2507 22.3818 54.888C22.7178 54.5253 23.1231 54.24 23.5978 54.032C24.0778 53.8187 24.6191 53.712 25.2218 53.712C25.7231 53.712 26.1871 53.7947 26.6138 53.96C27.0405 54.12 27.4085 54.3573 27.7178 54.672C28.0271 54.9867 28.2671 55.3733 28.4378 55.832C28.6138 56.2853 28.7018 56.8027 28.7018 57.384C28.7018 57.6507 28.6725 57.8293 28.6138 57.92C28.5551 58.0107 28.4485 58.056 28.2938 58.056H23.0538ZM35.6178 54.304C35.7031 54.1653 35.8178 54.0533 35.9618 53.968C36.1111 53.8827 36.2658 53.84 36.4258 53.84H37.7698L35.7618 56.904C35.6338 57.112 35.5005 57.28 35.3618 57.408C35.2231 57.536 35.0525 57.6347 34.8498 57.704C35.1111 57.7787 35.3271 57.8933 35.4978 58.048C35.6738 58.1973 35.8311 58.392 35.9698 58.632L37.9938 62H36.8098C36.5058 62 36.2685 61.9493 36.0978 61.848C35.9325 61.7467 35.7911 61.5973 35.6738 61.4L34.2898 59.016C34.1778 58.8133 34.0311 58.664 33.8498 58.568C33.6685 58.472 33.4631 58.424 33.2338 58.424H32.4258V62.008H30.7058V53.84H32.4258V57.272H33.1218C33.3458 57.272 33.5325 57.2293 33.6818 57.144C33.8311 57.0587 33.9591 56.928 34.0658 56.752L35.6178 54.304ZM46.5018 55.136H43.4938V62H41.7738V55.136H38.7578V53.84H46.5018V55.136ZM49.8821 59.952C50.1221 60.2613 50.3834 60.48 50.6661 60.608C50.9541 60.7307 51.2714 60.792 51.6181 60.792C52.2901 60.792 52.8127 60.5467 53.1861 60.056C53.5647 59.5653 53.7541 58.8347 53.7541 57.864C53.7541 57.3627 53.7114 56.936 53.6261 56.584C53.5407 56.2267 53.4181 55.936 53.2581 55.712C53.0981 55.488 52.9034 55.3253 52.6741 55.224C52.4447 55.1227 52.1861 55.072 51.8981 55.072C51.4607 55.072 51.0821 55.168 50.7621 55.36C50.4474 55.5467 50.1541 55.816 49.8821 56.168V59.952ZM49.7941 55.024C50.1354 54.624 50.5221 54.3013 50.9541 54.056C51.3914 53.8107 51.8981 53.688 52.4741 53.688C52.9327 53.688 53.3487 53.7813 53.7221 53.968C54.0954 54.1493 54.4154 54.416 54.6821 54.768C54.9487 55.12 55.1541 55.5573 55.2981 56.08C55.4474 56.5973 55.5221 57.192 55.5221 57.864C55.5221 58.4667 55.4394 59.0293 55.2741 59.552C55.1141 60.0693 54.8821 60.52 54.5781 60.904C54.2741 61.2827 53.9061 61.5813 53.4741 61.8C53.0421 62.0133 52.5541 62.12 52.0101 62.12C51.5301 62.12 51.1221 62.0427 50.7861 61.888C50.4554 61.7333 50.1541 61.52 49.8821 61.248V64.712H48.1621V53.84H49.2021C49.4367 53.84 49.5861 53.9493 49.6501 54.168L49.7941 55.024ZM61.1213 53.712C61.724 53.712 62.268 53.8107 62.7533 54.008C63.244 54.2053 63.66 54.4853 64.0013 54.848C64.348 55.2107 64.6146 55.6507 64.8013 56.168C64.988 56.6853 65.0813 57.2667 65.0813 57.912C65.0813 58.5573 64.988 59.1387 64.8013 59.656C64.6146 60.1733 64.348 60.616 64.0013 60.984C63.66 61.3467 63.244 61.6267 62.7533 61.824C62.268 62.0213 61.724 62.12 61.1213 62.12C60.5133 62.12 59.964 62.0213 59.4733 61.824C58.988 61.6267 58.572 61.3467 58.2253 60.984C57.8786 60.616 57.612 60.1733 57.4253 59.656C57.2386 59.1387 57.1453 58.5573 57.1453 57.912C57.1453 57.2667 57.2386 56.6853 57.4253 56.168C57.612 55.6507 57.8786 55.2107 58.2253 54.848C58.572 54.4853 58.988 54.2053 59.4733 54.008C59.964 53.8107 60.5133 53.712 61.1213 53.712ZM61.1213 60.776C61.8573 60.776 62.404 60.5307 62.7613 60.04C63.124 59.544 63.3053 58.8373 63.3053 57.92C63.3053 57.0027 63.124 56.296 62.7613 55.8C62.404 55.2987 61.8573 55.048 61.1213 55.048C60.3746 55.048 59.82 55.2987 59.4573 55.8C59.0946 56.296 58.9133 57.0027 58.9133 57.92C58.9133 58.8373 59.0946 59.544 59.4573 60.04C59.82 60.5307 60.3746 60.776 61.1213 60.776ZM74.0939 53.84V62H72.3819V58.296H68.8539V62H67.1339V53.84H68.8539V57H72.3819V53.84H74.0939ZM83.5564 53.84V62H81.8444V58.296H78.3164V62H76.5964V53.84H78.3164V57H81.8444V53.84H83.5564ZM89.2989 60.752C89.5496 60.752 89.7683 60.72 89.9549 60.656C90.1469 60.5867 90.3043 60.496 90.4269 60.384C90.5549 60.2667 90.6483 60.128 90.7069 59.968C90.7709 59.808 90.8029 59.632 90.8029 59.44C90.8029 59.2693 90.7736 59.1093 90.7149 58.96C90.6616 58.8053 90.5736 58.672 90.4509 58.56C90.3336 58.4427 90.1789 58.352 89.9869 58.288C89.7949 58.2187 89.5603 58.184 89.2829 58.184H87.6909V60.752H89.2989ZM89.2749 56.944C89.8403 56.944 90.3176 57.0133 90.7069 57.152C91.0963 57.2853 91.4109 57.4667 91.6509 57.696C91.8909 57.9253 92.0643 58.192 92.1709 58.496C92.2776 58.7947 92.3309 59.1067 92.3309 59.432C92.3309 59.8107 92.2643 60.1573 92.1309 60.472C91.9976 60.7813 91.8003 61.0507 91.5389 61.28C91.2829 61.5093 90.9656 61.688 90.5869 61.816C90.2136 61.9387 89.7843 62 89.2989 62H86.0589V53.84H87.6909V56.944H89.2749ZM95.6749 53.84V62H93.9549V53.84H95.6749ZM105.354 53.84V62H103.634V56.888C103.634 56.776 103.639 56.6533 103.65 56.52C103.66 56.3867 103.676 56.2507 103.698 56.112C103.644 56.2293 103.591 56.3387 103.538 56.44C103.49 56.536 103.436 56.624 103.378 56.704L99.8337 61.576C99.7697 61.6773 99.6844 61.776 99.5777 61.872C99.471 61.9627 99.351 62.008 99.2177 62.008H98.1777V53.84H99.8977V58.952C99.8977 59.064 99.8897 59.1893 99.8737 59.328C99.863 59.4667 99.847 59.6053 99.8257 59.744C99.9324 59.4987 100.042 59.296 100.154 59.136L103.698 54.272C103.762 54.1653 103.847 54.0667 103.954 53.976C104.06 53.8853 104.18 53.84 104.314 53.84H105.354ZM101.866 51.808C102.074 51.808 102.247 51.7867 102.386 51.744C102.53 51.696 102.644 51.6213 102.73 51.52C102.815 51.4133 102.876 51.2773 102.914 51.112C102.951 50.9413 102.97 50.7307 102.97 50.48H103.978C104.1 50.48 104.191 50.5333 104.25 50.64C104.308 50.7413 104.338 50.8533 104.338 50.976C104.338 51.248 104.279 51.4933 104.162 51.712C104.05 51.9253 103.887 52.1093 103.674 52.264C103.46 52.4133 103.199 52.5307 102.89 52.616C102.586 52.696 102.244 52.736 101.866 52.736C101.487 52.736 101.143 52.696 100.834 52.616C100.53 52.5307 100.271 52.4133 100.058 52.264C99.8444 52.1093 99.679 51.9253 99.5617 51.712C99.4497 51.4933 99.3937 51.248 99.3937 50.976C99.3937 50.8533 99.423 50.7413 99.4817 50.64C99.5404 50.5333 99.631 50.48 99.7537 50.48H100.762C100.762 50.7307 100.78 50.9413 100.818 51.112C100.855 51.2773 100.916 51.4133 101.002 51.52C101.087 51.6213 101.199 51.696 101.338 51.744C101.482 51.7867 101.658 51.808 101.866 51.808ZM119.188 62H117.476V55.136H113.948V62H112.228V53.84H119.188V62ZM125.218 53.712C125.821 53.712 126.365 53.8107 126.85 54.008C127.341 54.2053 127.757 54.4853 128.098 54.848C128.445 55.2107 128.712 55.6507 128.898 56.168C129.085 56.6853 129.178 57.2667 129.178 57.912C129.178 58.5573 129.085 59.1387 128.898 59.656C128.712 60.1733 128.445 60.616 128.098 60.984C127.757 61.3467 127.341 61.6267 126.85 61.824C126.365 62.0213 125.821 62.12 125.218 62.12C124.61 62.12 124.061 62.0213 123.57 61.824C123.085 61.6267 122.669 61.3467 122.322 60.984C121.976 60.616 121.709 60.1733 121.522 59.656C121.336 59.1387 121.242 58.5573 121.242 57.912C121.242 57.2667 121.336 56.6853 121.522 56.168C121.709 55.6507 121.976 55.2107 122.322 54.848C122.669 54.4853 123.085 54.2053 123.57 54.008C124.061 53.8107 124.61 53.712 125.218 53.712ZM125.218 60.776C125.954 60.776 126.501 60.5307 126.858 60.04C127.221 59.544 127.402 58.8373 127.402 57.92C127.402 57.0027 127.221 56.296 126.858 55.8C126.501 55.2987 125.954 55.048 125.218 55.048C124.472 55.048 123.917 55.2987 123.554 55.8C123.192 56.296 123.01 57.0027 123.01 57.92C123.01 58.8373 123.192 59.544 123.554 60.04C123.917 60.5307 124.472 60.776 125.218 60.776ZM140.511 53.816V62H138.967V57.064C138.967 56.8933 138.977 56.7013 138.999 56.488C139.02 56.2693 139.047 56.0667 139.079 55.88L136.479 60.552C136.425 60.648 136.356 60.7253 136.271 60.784C136.185 60.8373 136.089 60.864 135.983 60.864H135.799C135.692 60.864 135.596 60.8373 135.511 60.784C135.431 60.7253 135.364 60.648 135.311 60.552L132.663 55.856C132.695 56.0427 132.721 56.248 132.743 56.472C132.769 56.6907 132.783 56.888 132.783 57.064V62H131.231V53.816H132.639C132.756 53.816 132.871 53.8427 132.983 53.896C133.1 53.9493 133.201 54.0533 133.287 54.208L135.503 58C135.577 58.1387 135.644 58.288 135.703 58.448C135.767 58.608 135.828 58.768 135.887 58.928C135.945 58.768 136.007 58.608 136.071 58.448C136.135 58.288 136.204 58.1387 136.279 58L138.463 54.208C138.543 54.048 138.641 53.944 138.759 53.896C138.876 53.8427 138.993 53.816 139.111 53.816H140.511ZM146.549 53.712C147.152 53.712 147.696 53.8107 148.181 54.008C148.672 54.2053 149.088 54.4853 149.429 54.848C149.776 55.2107 150.043 55.6507 150.229 56.168C150.416 56.6853 150.509 57.2667 150.509 57.912C150.509 58.5573 150.416 59.1387 150.229 59.656C150.043 60.1733 149.776 60.616 149.429 60.984C149.088 61.3467 148.672 61.6267 148.181 61.824C147.696 62.0213 147.152 62.12 146.549 62.12C145.941 62.12 145.392 62.0213 144.901 61.824C144.416 61.6267 144 61.3467 143.653 60.984C143.307 60.616 143.04 60.1733 142.853 59.656C142.667 59.1387 142.573 58.5573 142.573 57.912C142.573 57.2667 142.667 56.6853 142.853 56.168C143.04 55.6507 143.307 55.2107 143.653 54.848C144 54.4853 144.416 54.2053 144.901 54.008C145.392 53.8107 145.941 53.712 146.549 53.712ZM146.549 60.776C147.285 60.776 147.832 60.5307 148.189 60.04C148.552 59.544 148.733 58.8373 148.733 57.92C148.733 57.0027 148.552 56.296 148.189 55.8C147.832 55.2987 147.285 55.048 146.549 55.048C145.803 55.048 145.248 55.2987 144.885 55.8C144.523 56.296 144.341 57.0027 144.341 57.92C144.341 58.8373 144.523 59.544 144.885 60.04C145.248 60.5307 145.803 60.776 146.549 60.776ZM165.202 60.704V64.248C165.202 64.408 165.154 64.5333 165.058 64.624C164.967 64.72 164.85 64.768 164.706 64.768H163.642V62H152.562V53.84H154.282V60.704H157.274V53.84H158.994V60.704H161.986V53.84H163.698V62H163.706V60.704H165.202ZM173.891 53.84V62H172.179V58.296H168.651V62H166.931V53.84H168.651V57H172.179V53.84H173.891ZM183.569 53.84V62H181.849V56.888C181.849 56.776 181.855 56.6533 181.865 56.52C181.876 56.3867 181.892 56.2507 181.913 56.112C181.86 56.2293 181.807 56.3387 181.753 56.44C181.705 56.536 181.652 56.624 181.593 56.704L178.049 61.576C177.985 61.6773 177.9 61.776 177.793 61.872C177.687 61.9627 177.567 62.008 177.433 62.008H176.393V53.84H178.113V58.952C178.113 59.064 178.105 59.1893 178.089 59.328C178.079 59.4667 178.063 59.6053 178.041 59.744C178.148 59.4987 178.257 59.296 178.369 59.136L181.913 54.272C181.977 54.1653 182.063 54.0667 182.169 53.976C182.276 53.8853 182.396 53.84 182.529 53.84H183.569ZM190.971 54.304C191.056 54.1653 191.171 54.0533 191.315 53.968C191.464 53.8827 191.619 53.84 191.779 53.84H193.123L191.115 56.904C190.987 57.112 190.854 57.28 190.715 57.408C190.576 57.536 190.406 57.6347 190.203 57.704C190.464 57.7787 190.68 57.8933 190.851 58.048C191.027 58.1973 191.184 58.392 191.323 58.632L193.347 62H192.163C191.859 62 191.622 61.9493 191.451 61.848C191.286 61.7467 191.144 61.5973 191.027 61.4L189.643 59.016C189.531 58.8133 189.384 58.664 189.203 58.568C189.022 58.472 188.816 58.424 188.587 58.424H187.779V62.008H186.059V53.84H187.779V57.272H188.475C188.699 57.272 188.886 57.2293 189.035 57.144C189.184 57.0587 189.312 56.928 189.419 56.752L190.971 54.304Z" fill="#FFFFFD"/>
</svg>
