<svg width="62" height="41" viewBox="0 0 62 41" fill="none" xmlns="http://www.w3.org/2000/svg">
<path fill-rule="evenodd" clip-rule="evenodd" d="M3.16287 4.87912C3.16287 2.75922 4.24723 2.15354 6.77741 2.15354H53.0435C54.4893 2.15354 57.381 1.8507 58.4653 2.75922C58.8268 3.06207 59.1883 3.66775 59.1883 4.57627V33.3462C59.1883 36.0718 59.5497 38.4945 55.9352 38.4945H8.94613C5.69304 38.4945 3.16287 38.7974 3.16287 35.769V4.87912ZM0.994141 4.57627V35.769C0.994141 37.586 1.71705 38.4945 2.80141 39.4031C4.97014 40.6144 6.77741 40.3116 9.66904 40.3116C26.2959 40.3116 37.8625 40.3116 54.1279 40.3116C56.6581 40.3116 58.1039 40.6144 59.9112 39.1002C62.0799 37.586 61.357 35.4661 61.357 32.4377V7.30185C61.357 4.87912 62.0799 1.54786 58.1039 0.336491C56.6581 0.0336491 50.5134 0.0336491 48.3446 0.0336491H9.30758C6.77741 0.0336491 4.97014 -0.269193 3.16287 0.942174C2.0785 1.54786 0.994141 2.75922 0.994141 4.57627Z" fill="#35347E"/>
<path fill-rule="evenodd" clip-rule="evenodd" d="M8.32116 30.4172C8.32116 30.1144 8.32116 29.206 8.32116 28.9032C8.32116 27.3892 8.64312 27.692 11.2188 26.1781C13.1506 25.5725 14.7604 24.6641 16.3702 23.7557C19.2678 22.5445 18.6239 22.2417 21.5215 23.7557C23.7752 24.6641 27.3168 26.1781 29.2486 27.3892C29.8925 27.692 29.8925 27.692 29.8925 28.6004C29.8925 28.9032 29.8925 29.8116 29.8925 30.4172C29.5705 31.3256 27.9607 31.0228 26.6729 31.0228H11.5408C10.5749 31.0228 8.64312 31.3256 8.32116 30.4172ZM17.98 9.82709C21.5215 8.9187 23.7752 11.6439 24.0972 14.369C24.4192 17.397 22.8094 20.1221 20.2337 20.7277C13.1506 21.9389 11.8627 11.3411 17.98 9.82709ZM22.4874 21.9389C22.4874 21.6361 23.1313 21.3333 23.4533 21.0305C28.9266 16.7914 25.707 7.70752 18.9458 7.70752C14.1164 7.70752 10.2529 13.4606 12.8286 18.6082C13.7945 20.7277 15.0823 21.0305 15.7262 21.9389C15.4043 22.2417 11.2188 24.0585 10.2529 24.6641C7.67724 25.5725 6.3894 25.8753 6.3894 28.9032C6.3894 30.72 6.3894 31.3256 7.35528 32.234C8.32116 33.1424 8.96508 33.1424 10.5749 33.1424C13.4725 33.1424 16.3702 33.1424 18.9458 33.1424C21.8435 33.1424 24.7411 33.1424 27.6388 33.1424C29.2486 33.1424 29.8925 32.8396 30.8584 31.9312C31.8242 31.0228 31.8242 30.4172 31.8242 28.9032C31.8242 25.8753 30.2144 25.5725 27.9607 24.6641C26.9948 24.0585 23.1313 22.2417 22.4874 21.9389Z" fill="#35347E"/>
<path fill-rule="evenodd" clip-rule="evenodd" d="M51.9591 30.9231C51.5976 30.9231 44.3686 30.9231 43.2842 30.9231C41.4769 30.9231 41.4769 30.6202 41.4769 31.8316C41.4769 32.1344 41.4769 32.4373 41.4769 33.0429C42.1998 33.0429 46.1758 33.0429 46.8987 33.0429C47.6216 33.0429 51.5976 33.0429 51.9591 33.0429V30.9231Z" fill="#35347E"/>
<path fill-rule="evenodd" clip-rule="evenodd" d="M50.8749 9.4214C51.2363 9.4214 51.9593 9.4214 51.9593 9.4214C51.9593 9.11856 51.9593 7.60436 51.9593 7.30151H41.8385C41.4771 7.9072 41.4771 8.81572 41.8385 9.4214H50.8749Z" fill="#35347E"/>
<path fill-rule="evenodd" clip-rule="evenodd" d="M41.4769 15.1757H51.9591V13.3586C51.5976 13.3586 41.8384 13.3586 41.4769 13.3586V15.1757Z" fill="#35347E"/>
<path fill-rule="evenodd" clip-rule="evenodd" d="M41.4769 26.9862C41.8384 26.9862 51.5976 27.2891 51.9591 26.9862V25.1692H41.4769V26.9862Z" fill="#35347E"/>
<path fill-rule="evenodd" clip-rule="evenodd" d="M41.8384 21.2327H51.9591V19.1128H41.8384V21.2327Z" fill="#35347E"/>
</svg>
