<svg width="66" height="39" viewBox="0 0 66 39" fill="none" xmlns="http://www.w3.org/2000/svg">
<path fill-rule="evenodd" clip-rule="evenodd" d="M32.071 22.7474C32.5439 23.0008 34.9762 24.9967 35.7532 25.5987C36.0572 25.8522 36.4964 26.3591 37.172 26.264C37.8815 26.1056 41.3272 23.0008 42.138 22.6523C42.442 22.8107 57.5088 36.7823 57.6102 37.0041L16.9028 36.9724C17.1055 36.5922 20.1121 33.8676 20.6526 33.3924C21.9026 32.1885 31.598 22.9691 32.071 22.7474ZM15.1799 35.6418C15.0786 28.2283 15.1799 20.4346 15.1799 12.9261C15.1799 12.4825 15.011 10.1064 15.3488 9.94801C15.6529 9.82128 22.612 15.3656 22.916 15.5873C24.3349 16.6645 25.4159 17.4882 26.7334 18.5337C27.3077 19.0089 30.2129 21.0999 30.4156 21.4801C30.0778 21.987 17.9501 33.2023 16.2272 34.8497C15.8894 35.1348 15.6529 35.5467 15.1799 35.6418ZM43.9622 21.3851C44.1649 21.0366 44.6717 20.7514 44.9757 20.498C45.3135 20.2445 45.5838 20.0227 45.9554 19.7693C46.5635 19.2941 47.2053 18.7872 47.9147 18.2486C49.3674 17.1397 50.4484 16.2843 51.8335 15.2388C53.151 14.225 54.3671 13.2746 55.786 12.1657C59.1642 9.56783 59.1304 9.25102 59.1304 11.1519C59.0966 19.1357 59.1979 27.4996 59.0966 35.42C58.6574 35.2616 55.7522 32.3786 55.2792 31.935C54.2995 31.0162 44.3001 21.892 43.9622 21.3851ZM37.1045 23.9829C36.4288 23.6978 28.1185 17.1714 27.3077 16.5061C26.7334 16.0626 17.8825 9.40942 17.6798 8.99756H56.5967C56.394 9.40942 54.6374 10.6133 54.1644 10.9618C53.3874 11.5955 52.5429 12.1974 51.7659 12.7993C50.347 13.8765 37.8477 23.6344 37.1045 23.9829ZM58.7588 6.93826C58.9615 6.58976 63.3869 3.32656 63.7247 3.23152L63.7585 9.18765C63.7585 12.2924 63.8599 28.3233 63.7247 30.0024H61.1911V11.5321C61.1911 6.71649 61.6302 7.03331 58.7588 6.93826ZM19.8081 3.19984C20.2472 3.32656 21.7337 4.53046 22.3417 4.94232C22.8485 5.3225 24.4362 6.30463 24.7403 6.84322L19.8081 6.81154V3.19984ZM61.6978 1.93258C61.6302 2.31275 57.171 5.41755 56.5292 5.89277C56.2589 6.08286 55.9211 6.33631 55.6508 6.55808C55.1779 6.90658 55.1441 6.8749 54.4009 6.84322C50.2119 6.84322 45.9892 6.81154 41.8002 6.84322C37.6112 6.8749 33.4222 6.77985 29.2333 6.84322C27.9158 6.8749 27.9495 6.55808 27.0712 5.92445C26.2267 5.29082 22.0715 2.28107 21.9026 1.93258H61.6978ZM17.7136 6.93826C16.8353 7.00162 15.6867 6.96994 14.7746 6.96994C13.7273 6.93826 13.1192 7.03331 13.0854 8.11048C13.0517 9.91633 13.0854 11.7855 13.0854 13.6231V35.8318C13.0854 38.9683 12.7814 38.9366 15.6191 38.9366C17.5785 38.9366 19.6054 38.9366 21.5647 38.9366C33.3547 38.8416 45.2122 38.9683 57.0021 38.9366C59.4344 38.9366 61.5965 39.3485 61.3262 37.6694C61.1573 36.2754 61.2586 33.6141 61.2924 32.0934C66.9002 31.9667 65.9206 33.234 65.9206 25.4086C65.9206 22.9691 66.0895 1.2039 65.8192 0.633631C65.4476 -0.158408 64.5017 0.0316816 63.522 0.0316816H22.2066C21.2269 0.0316816 20.2472 0.0316816 19.2676 0C18.1528 0 17.7136 0.221771 17.7136 1.33063C17.7136 3.16816 17.7812 5.10073 17.7136 6.93826Z" fill="#35347E"/>
<path fill-rule="evenodd" clip-rule="evenodd" d="M0.720881 24.9968C0.0114583 25.2503 -0.326362 26.1057 0.450625 26.6443C0.957356 27.0244 2.47755 26.866 3.25453 26.866C4.13287 26.866 8.79479 26.9611 9.23396 26.8027C10.0447 26.5175 10.1123 25.5037 9.538 25.1236C8.92992 24.7117 1.0587 24.9018 0.720881 24.9968Z" fill="#35347E"/>
<path fill-rule="evenodd" clip-rule="evenodd" d="M0.754669 19.8643C-0.0898823 20.1494 -0.22501 21.0365 0.45063 21.5434C0.923579 21.8919 2.47755 21.7335 3.25454 21.7335C4.09909 21.7335 8.82858 21.8285 9.23396 21.6701C9.94338 21.4483 10.2474 20.4662 9.538 19.991C8.96371 19.6425 7.4773 19.8009 6.70031 19.8009C5.72063 19.8009 1.29518 19.6742 0.754669 19.8643Z" fill="#35347E"/>
<path fill-rule="evenodd" clip-rule="evenodd" d="M5.21435 32.5369C7.30884 32.5369 10.079 33.0438 9.91005 31.3964C9.80871 30.1608 6.73454 30.6043 4.91031 30.6043C4.03198 30.6043 3.35633 30.7627 3.45768 31.6815C3.52525 32.5686 4.3698 32.5369 5.21435 32.5369Z" fill="#35347E"/>
<path fill-rule="evenodd" clip-rule="evenodd" d="M8.15339 14.1934H6.29538C5.04545 14.1934 3.52525 13.94 3.45769 15.0805C3.35634 16.4428 5.11301 16.126 6.16025 16.126C7.07237 16.1577 9.13307 16.3478 9.60602 15.8409C9.91006 15.5557 10.079 15.0171 9.74115 14.6053C9.36955 14.1617 8.86282 14.1934 8.15339 14.1934Z" fill="#35347E"/>
</svg>
