<svg width="63" height="42" viewBox="0 0 63 42" fill="none" xmlns="http://www.w3.org/2000/svg">
<path fill-rule="evenodd" clip-rule="evenodd" d="M2.31964 20.8393C4.3413 20.8393 18.0437 20.8393 21.1885 20.8393C33.9923 20.8393 46.7962 20.8393 59.6001 20.8393C60.4986 20.8393 60.2739 21.0652 60.2739 22.1947V34.3933C60.2739 40.0408 60.4986 39.1372 50.8395 39.1372H22.3116C19.6161 39.1372 4.56593 39.589 3.44278 38.9113C2.09501 38.2336 2.31964 37.1041 2.31964 35.2969C2.31964 33.2638 2.09501 21.9688 2.31964 20.8393ZM2.31964 10.8997H60.2739V18.5803H2.31964V10.8997ZM2.31964 4.57448C2.31964 2.99318 3.21816 2.08958 4.79056 2.08958H51.5134C60.9478 2.08958 60.2739 1.41188 60.2739 8.64068C49.2671 8.86658 36.4633 8.64068 25.2318 8.64068C19.3914 8.64068 7.93537 8.86658 2.31964 8.64068V4.57448ZM3.66741 0.282375C-0.825168 1.18598 0.0733483 5.25218 0.0733483 9.77018V35.7487C0.0733483 38.0077 0.297977 39.1372 1.87038 40.4926C3.21816 41.6221 5.23982 41.3962 7.48611 41.3962C16.022 41.3962 24.5579 41.3962 33.3185 41.3962C37.5864 41.3962 41.8544 41.3962 46.1223 41.3962C48.144 41.3962 58.0277 41.3962 59.1508 41.1703C63.4188 40.2667 62.5202 35.2969 62.5202 31.6825V5.70398C62.5202 -0.169425 59.3754 0.056475 55.1075 0.056475H9.95703C8.38462 0.056475 5.01519 -0.169425 3.66741 0.282375Z" fill="#35347E"/>
<path fill-rule="evenodd" clip-rule="evenodd" d="M22.3117 35.297H25.9058C27.4782 35.297 28.1521 35.297 27.9274 33.4898C27.9274 32.1344 26.1304 32.5862 24.3334 32.5862C21.4132 32.5862 20.29 32.1344 20.29 34.1675C20.29 35.297 21.1886 35.297 22.3117 35.297Z" fill="#35347E"/>
<path fill-rule="evenodd" clip-rule="evenodd" d="M8.15996 31.9086C5.68904 33.0381 7.26144 36.4266 9.50773 35.7489C11.9786 34.8453 10.6309 31.005 8.15996 31.9086Z" fill="#35347E"/>
<path fill-rule="evenodd" clip-rule="evenodd" d="M14.674 32.1342C12.4277 33.2637 14.2247 36.6522 16.471 35.5227C18.4927 34.6191 17.1449 31.0047 14.674 32.1342Z" fill="#35347E"/>
</svg>
